<svg width="94" height="94" fill="none" xmlns="http://www.w3.org/2000/svg"><g clip-path="url(#clip0)"><path d="M59.602 13.475a1.6 1.6 0 0 0-1.007-.792l-3.184-.881c-.414-.144-.81-.09-1.206.126a1.6 1.6 0 0 0-.791 1.007l-19.16 66.313c-.144.45-.09.863.126 1.26.216.395.557.665 1.007.79l3.184.882c.414.144.81.09 1.206-.126a1.6 1.6 0 0 0 .791-1.007l19.16-66.313a1.478 1.478 0 0 0-.126-1.26z" fill="#FAE042"/><path d="M29.378 26.806L9.193 46.99l20.185 20.185c.342.342.522.738.522 1.188 0 .45-.18.845-.522 1.187l-2.572 2.555c-.342.342-.738.521-1.188.521-.45 0-.845-.18-1.187-.521L.504 48.178C.18 47.837 0 47.441 0 46.991c0-.45.18-.846.522-1.187l23.927-23.928c.342-.341.738-.521 1.187-.521.45 0 .846.18 1.188.521l2.572 2.573c.342.342.522.738.522 1.187-.018.432-.198.828-.54 1.17z" fill="#000"/><path d="M93.532 46.901L69.605 22.974c-.342-.342-.738-.522-1.187-.522-.45 0-.846.18-1.188.522l-2.572 2.572a1.62 1.62 0 0 0-.504 1.188c0 .45.18.845.504 1.187l20.185 20.185-20.167 20.15a1.62 1.62 0 0 0-.504 1.187c0 .45.18.846.504 1.187l2.572 2.573c.342.342.738.522 1.188.522.45 0 .845-.18 1.187-.522L93.55 49.276c.342-.342.522-.738.522-1.188-.018-.45-.198-.845-.54-1.187z" fill="#ED2939"/></g><defs><clipPath id="clip0"><path fill="#fff" d="M0 0h94v94H0z"/></clipPath></defs></svg>
