<svg width="200" height="200" viewBox="0 0 200 200" fill="none" xmlns="http://www.w3.org/2000/svg">
<g clip-path="url(#clip0)">
<path d="M-74.6033 -0.529099H312.396V199.471H-74.6033V-0.529099Z" fill="#ABA28C"/>
<path d="M47.8457 35.7521L-243.915 75.0567L20.6349 111.338L47.8457 35.7521Z" fill="#9E7F0A" fill-opacity="0.76"/>
<path d="M147.619 140.06L59.9395 155.178L164.248 247.392L147.619 140.06Z" fill="#AF8B03" fill-opacity="0.66"/>
<path d="M-74.6033 -183.447L109.826 170.295L357.747 129.478L-74.6033 -183.447Z" fill="#FCBFAC" fill-opacity="0.45"/>
<path d="M127.967 97.7324L235.298 132.502L180.877 32.7287L127.967 97.7324Z" fill="#DA5F43" fill-opacity="0.55"/>
<path d="M29.7051 96.2207L-76.115 105.291L22.1465 76.5684L29.7051 96.2207Z" fill="#2F0415" fill-opacity="0.56"/>
<path d="M221.693 214.135L91.6855 200.529L206.576 161.225L221.693 214.135Z" fill="#AC8200" fill-opacity="0.65"/>
<path d="M-67.0446 82.6153L-101.814 94.709L8.54116 105.291L-67.0446 82.6153Z" fill="#30051C" fill-opacity="0.44"/>
<path d="M-18.6698 94.709L111.338 289.72L-198.564 138.549L-18.6698 94.709Z" fill="#110027" fill-opacity="0.22"/>
<path d="M106.803 191.459L162.736 99.2442L102.268 147.619L106.803 191.459Z" fill="#F4FF6B" fill-opacity="0.46"/>
<path d="M165.759 81.1036L147.619 52.381L162.736 35.7521L165.759 81.1036Z" fill="#D03D0A" fill-opacity="0.56"/>
<path d="M53.8927 52.381L-6.57598 91.6856L-32.2751 -65.5329L53.8927 52.381Z" fill="#FFF957" fill-opacity="0.36"/>
<path d="M188.435 159.713L143.084 123.432L159.713 206.576L188.435 159.713Z" fill="#FFFFA6" fill-opacity="0.57"/>
<path d="M167.271 208.088L192.97 194.482L199.017 137.037L167.271 208.088Z" fill="#954500" fill-opacity="0.58"/>
<path d="M170.295 87.1504L203.552 38.7755L215.646 59.9395L170.295 87.1504Z" fill="#CF6F30" fill-opacity="0.56"/>
<path d="M173.318 285.185L143.084 134.014L126.455 174.83L173.318 285.185Z" fill="#945E02" fill-opacity="0.7"/>
<path d="M4.00601 -11.1111L-103.326 -47.3923L-30.7634 75.0567L4.00601 -11.1111Z" fill="#FFFFB4" fill-opacity="0.35"/>
<path d="M96.2207 117.385L123.432 90.1738L108.314 152.154L96.2207 117.385Z" fill="#F5EFDF" fill-opacity="0.6"/>
<path d="M17.6115 72.0333L26.6817 103.779L53.8926 61.4512L17.6115 72.0333Z" fill="#724B3B" fill-opacity="0.5"/>
<path d="M85.6386 194.482L105.291 141.572L69.0098 114.361L85.6386 194.482Z" fill="#A48F1E" fill-opacity="0.62"/>
<path d="M106.803 53.8927L17.6114 179.365L-20.1815 108.314L106.803 53.8927Z" fill="#C5B7BB" fill-opacity="0.35"/>
<path d="M67.498 81.1036L230.763 150.642L226.228 100.756L67.498 81.1036Z" fill="#EE9386" fill-opacity="0.5"/>
<path d="M58.4278 69.0098L-30.7634 -100.302L268.556 4.00605L58.4278 69.0098Z" fill="#BCC4CB" fill-opacity="0.64"/>
<path d="M35.752 70.5216L-119.955 94.709L-56.4626 35.7521L35.752 70.5216Z" fill="#C7B000" fill-opacity="0.4"/>
<path d="M185.412 70.5215L179.365 88.6621L173.318 37.2638L185.412 70.5215Z" fill="#803503" fill-opacity="0.49"/>
<path d="M99.2441 108.314L84.1269 49.3575L70.5215 150.642L99.2441 108.314Z" fill="#F2EDB6" fill-opacity="0.52"/>
<path d="M67.498 56.9161L177.853 13.0763L130.99 59.9395L67.498 56.9161Z" fill="#FED4A9" fill-opacity="0.43"/>
<path d="M53.8925 53.8927L37.2637 25.1701L43.3105 65.9864L53.8925 53.8927Z" fill="#8F827C" fill-opacity="0.61"/>
<path d="M37.2637 67.4981L50.8691 76.5684L-23.205 99.2442L37.2637 67.4981Z" fill="#330C00" fill-opacity="0.4"/>
<path d="M-24.7167 38.7755L-14.1347 -76.1149L17.6114 25.1701L-24.7167 38.7755Z" fill="#CEC7CA" fill-opacity="0.48"/>
<path d="M174.83 64.4747L146.107 162.736L158.201 76.5684L174.83 64.4747Z" fill="#F3EDCA" fill-opacity="0.5"/>
<path d="M141.572 227.74L-77.6267 262.509L61.4511 147.619L141.572 227.74Z" fill="#908489" fill-opacity="0.63"/>
<path d="M194.482 59.9395L197.506 140.06L185.412 99.2441L194.482 59.9395Z" fill="#E7E97C" fill-opacity="0.48"/>
<path d="M158.201 256.463L179.365 144.596L159.713 159.713L158.201 256.463Z" fill="#E1E346" fill-opacity="0.56"/>
<path d="M121.92 34.2404L75.0566 61.4512L126.455 22.1466L121.92 34.2404Z" fill="#E6D24B" fill-opacity="0.43"/>
<path d="M70.5215 93.1973L127.967 40.2872V49.3575L70.5215 93.1973Z" fill="#DBAF0A" fill-opacity="0.49"/>
<path d="M78.0801 176.342L114.361 205.064L91.6855 114.361L78.0801 176.342Z" fill="#7F5D00" fill-opacity="0.31"/>
<path d="M22.1466 229.252L-97.2789 118.896L-57.9743 257.974L22.1466 229.252Z" fill="#5C5756" fill-opacity="0.5"/>
<path d="M141.572 41.799L85.6387 105.291L137.037 70.5216L141.572 41.799Z" fill="#EF7F87" fill-opacity="0.51"/>
<path d="M165.759 146.107L150.642 171.806L146.107 123.432L165.759 146.107Z" fill="#EDE5E7" fill-opacity="0.66"/>
<path d="M-41.3455 85.6387L25.17 94.709L-50.4158 97.7324L-41.3455 85.6387Z" fill="#3D1000" fill-opacity="0.49"/>
<path d="M194.482 82.6153L192.97 182.389L217.158 191.459L194.482 82.6153Z" fill="#DDD60E" fill-opacity="0.27"/>
<path d="M25.17 7.02948L-6.57605 67.4981L46.334 61.4512L25.17 7.02948Z" fill="#CFC129" fill-opacity="0.58"/>
<path d="M106.803 146.107L97.7324 109.826L137.037 138.549L106.803 146.107Z" fill="#EEE2DE" fill-opacity="0.48"/>
<path d="M158.201 67.4981L138.549 132.502L114.361 115.873L158.201 67.4981Z" fill="#EF3181" fill-opacity="0.31"/>
<path d="M183.9 147.619L161.224 211.111L194.482 141.572L183.9 147.619Z" fill="#F1F6E0" fill-opacity="0.48"/>
<path d="M182.388 44.8224L159.713 126.455L164.248 146.107L182.388 44.8224Z" fill="#D82F44" fill-opacity="0.38"/>
<path d="M158.201 35.7521L127.967 47.8458L150.642 59.9395L158.201 35.7521Z" fill="#F08098" fill-opacity="0.5"/>
<path d="M140.06 162.736L117.385 150.642L108.314 173.318L140.06 162.736Z" fill="#C2CE01" fill-opacity="0.46"/>
<path d="M79.5918 85.6387L96.2207 114.361L76.5684 121.92L79.5918 85.6387Z" fill="#E5E4E9" fill-opacity="0.58"/>
<path d="M55.4044 283.673L22.1466 97.7324L-36.8103 111.338L55.4044 283.673Z" fill="#9A8C83" fill-opacity="0.51"/>
<path d="M173.318 161.225L179.365 103.779L170.295 140.06L173.318 161.225Z" fill="#F3DA45" fill-opacity="0.57"/>
<path d="M44.8223 152.154L53.8926 -56.4626L73.5449 180.877L44.8223 152.154Z" fill="#BBB4B2" fill-opacity="0.63"/>
<path d="M186.924 16.0998L180.877 52.381L168.783 65.9864L186.924 16.0998Z" fill="#9D5B2A" fill-opacity="0.49"/>
<path d="M147.619 109.826L159.713 93.1973L143.084 134.014L147.619 109.826Z" fill="#F4F02F" fill-opacity="0.43"/>
<path d="M121.92 13.0764L279.138 49.3575L135.525 -166.818L121.92 13.0764Z" fill="#BFBEC0" fill-opacity="0.92"/>
<path d="M67.498 161.225L75.0566 129.478H88.6621L67.498 161.225Z" fill="#D1C534" fill-opacity="0.55"/>
<path d="M177.853 179.365L209.599 205.064H170.295L177.853 179.365Z" fill="#7A3B00" fill-opacity="0.52"/>
<path d="M158.201 84.127L167.271 53.8927L155.177 31.2169L158.201 84.127Z" fill="#C02407" fill-opacity="0.39"/>
<path d="M94.709 115.873L100.756 111.338V161.224L94.709 115.873Z" fill="#B29F03" fill-opacity="0.4"/>
<path d="M185.412 41.7989L212.623 17.6115L189.947 56.9161L185.412 41.7989Z" fill="#BEC6D2" fill-opacity="0.53"/>
<path d="M5.51765 25.1701V53.8927L-20.1815 -3.55252L5.51765 25.1701Z" fill="#C7B659" fill-opacity="0.46"/>
<path d="M138.549 29.7052L106.803 58.4278L118.896 31.2169L138.549 29.7052Z" fill="#F5E7F6" fill-opacity="0.46"/>
<path d="M205.064 64.4747L192.97 96.2207L224.716 132.502L205.064 64.4747Z" fill="#DC4A58" fill-opacity="0.45"/>
<path d="M41.7989 34.2404L17.6115 31.2169L34.2403 70.5215L41.7989 34.2404Z" fill="#DBD130" fill-opacity="0.53"/>
<path d="M81.1035 61.4513L137.037 23.6584L78.0801 84.127L81.1035 61.4513Z" fill="#EADACF" fill-opacity="0.59"/>
<path d="M174.83 177.853L152.154 185.412L165.759 153.666L174.83 177.853Z" fill="#DFDF38" fill-opacity="0.48"/>
<path d="M162.736 -8.08768L179.365 34.2404L167.271 82.6153L162.736 -8.08768Z" fill="#CCC7CA" fill-opacity="0.37"/>
<path d="M96.2207 118.896L114.361 99.2441L112.85 93.1973L96.2207 118.896Z" fill="#EFE642" fill-opacity="0.53"/>
<path d="M129.478 72.0333L156.689 53.8927L111.338 117.385L129.478 72.0333Z" fill="#FFE5C0" fill-opacity="0.44"/>
<path d="M138.549 56.9161L146.107 59.9395L124.943 81.1036L138.549 56.9161Z" fill="#EFD44C" fill-opacity="0.61"/>
<path d="M91.6855 58.4278L100.756 41.799L78.0801 59.9395L91.6855 58.4278Z" fill="#CAAF31" fill-opacity="0.45"/>
</g>
<defs>
<clipPath id="clip0">
<rect width="200" height="200" fill="white"/>
</clipPath>
</defs>
</svg>
