<svg width="160" height="160" viewBox="0 0 160 160" fill="none" xmlns="http://www.w3.org/2000/svg">
<rect width="160" height="160" fill="white"/>
<path d="M125.664 16.3193H41.1813C36.5199 16.3193 32.7412 20.0773 32.7412 24.7132V135.287C32.7412 139.923 36.5199 143.681 41.1813 143.681H125.664C130.337 143.681 134.125 139.913 134.125 135.266V24.7339C134.125 20.0868 130.337 16.3193 125.664 16.3193Z" fill="#FEDA6F"/>
<path d="M123.44 18.8457H41.9634C37.468 18.8457 33.8237 22.4546 33.8237 26.9067V133.095C33.8237 137.547 37.468 141.156 41.9634 141.156H123.44C127.947 141.156 131.6 137.538 131.6 133.075V26.9265C131.6 22.4637 127.947 18.8457 123.44 18.8457V18.8457Z" fill="#EDEDED"/>
<path d="M118.948 16.3193H34.9945C30.3625 16.3193 26.6074 20.0744 26.6074 24.7067V135.194C26.6074 139.826 30.3625 143.581 34.9945 143.581H118.948C123.591 143.581 127.356 139.817 127.356 135.173V24.7273C127.356 20.0838 123.591 16.3193 118.948 16.3193V16.3193Z" fill="#FEDA6F"/>
<path d="M34.9945 16.3193C30.3625 16.3193 26.6074 20.0744 26.6074 24.7067V135.194C26.6074 139.826 30.3625 143.581 34.9945 143.581H40.2935V16.3193H34.9945Z" fill="black" fill-opacity="0.05"/>
<path d="M103.102 65.2998H103.102C102.35 65.2998 101.74 65.9098 101.74 66.6622V81.4584H99.3176V66.6622C99.3176 65.9098 98.7076 65.2998 97.9552 65.2998H97.9336C97.1812 65.2998 96.5713 65.9098 96.5713 66.6622V81.4584H94.1488V66.6622C94.1488 65.9098 93.5388 65.2998 92.7864 65.2998H92.7648C92.0123 65.2998 91.4024 65.9098 91.4024 66.6622V81.4584H88.9799V66.6622C88.9799 65.9098 88.3699 65.2998 87.6175 65.2998H87.6175C86.8651 65.2998 86.2551 65.9098 86.2551 66.6622V81.3549C86.2551 84.3818 87.801 87.1973 90.3531 88.821L92.308 90.0658L91.2262 127.842C91.1502 130.108 92.8445 132.125 95.1083 132.259C97.5655 132.404 99.58 130.41 99.4987 127.986L98.4122 90.0657L100.367 88.821C102.919 87.1973 104.465 84.3818 104.465 81.3549V66.6622C104.465 65.9098 103.855 65.2998 103.102 65.2998V65.2998Z" fill="#344D5B"/>
<path d="M80.0061 79.0387C80.0061 71.4509 75.4817 65.2998 69.9006 65.2998C64.3195 65.2998 59.7952 71.4509 59.7952 79.0387C59.7952 85.1488 62.7309 90.3208 66.7876 92.1062L65.7644 127.842C65.6884 130.108 67.3827 132.125 69.6464 132.259C72.1037 132.404 74.1182 130.41 74.0369 127.986L73.009 92.1085C77.0681 90.3251 80.0061 85.1511 80.0061 79.0387V79.0387Z" fill="#344D5B"/>
<path d="M69.9014 88.8519C74.3932 88.8519 78.0345 83.9016 78.0345 77.7951C78.0345 71.6886 74.3932 66.7383 69.9014 66.7383C65.4096 66.7383 61.7683 71.6886 61.7683 77.7951C61.7683 83.9016 65.4096 88.8519 69.9014 88.8519Z" fill="#293B44"/>
<path d="M58.6543 31.5146H105.606V50.637H58.6543V31.5146Z" fill="#EDEDED"/>
</svg>
