<svg width="136" height="161" viewBox="0 0 136 161" fill="none" xmlns="http://www.w3.org/2000/svg">
<path d="M125.049 0.319336H18.9159C13.0601 0.319336 8.31299 5.04036 8.31299 10.8643V149.774C8.31299 155.598 13.0601 160.319 18.9159 160.319H125.049C130.92 160.319 135.678 155.586 135.678 149.748V10.8903C135.678 5.05225 130.92 0.319336 125.049 0.319336Z" fill="#FEDA6F"/>
<path d="M122.255 3.49316H19.8982C14.2508 3.49316 9.67261 8.02695 9.67261 13.6199V147.021C9.67261 152.614 14.2508 157.148 19.8982 157.148H122.255C127.916 157.148 132.505 152.602 132.505 146.996V13.6449C132.505 8.03837 127.916 3.49316 122.255 3.49316V3.49316Z" fill="#EDEDED"/>
<path d="M116.612 0.319336H11.1439C5.32475 0.319336 0.607422 5.03667 0.607422 10.8561V149.657C0.607422 155.477 5.32475 160.194 11.1439 160.194H116.612C122.445 160.194 127.174 155.465 127.174 149.631V10.882C127.174 5.04855 122.445 0.319336 116.612 0.319336V0.319336Z" fill="#FEDA6F"/>
<path d="M11.1439 0.319336C5.32475 0.319336 0.607422 5.03667 0.607422 10.8561V149.657C0.607422 155.477 5.32475 160.194 11.1439 160.194H17.8008V0.319336H11.1439Z" fill="black" fill-opacity="0.05"/>
<path d="M96.7056 61.8516H96.7055C95.7603 61.8516 94.994 62.6179 94.994 63.5631V82.1511H91.9507V63.5631C91.9507 62.6179 91.1845 61.8516 90.2392 61.8516H90.2121C89.2669 61.8516 88.5006 62.6179 88.5006 63.5631V82.1511H85.4573V63.5631C85.4573 62.6179 84.691 61.8516 83.7458 61.8516H83.7186C82.7734 61.8516 82.0071 62.6179 82.0071 63.5631V82.1511H78.9638V63.5631C78.9638 62.6179 78.1975 61.8516 77.2523 61.8516H77.2523C76.307 61.8516 75.5408 62.6179 75.5408 63.5631V82.021C75.5408 85.8236 77.4829 89.3606 80.6889 91.4005L83.1447 92.9643L81.7858 140.421C81.6903 143.269 83.8188 145.802 86.6627 145.97C89.7496 146.152 92.2804 143.647 92.1783 140.602L90.8133 92.9642L93.269 91.4005C96.475 89.3606 98.4171 85.8236 98.4171 82.021V63.5631C98.4171 62.6179 97.6508 61.8516 96.7056 61.8516V61.8516Z" fill="#344D5B"/>
<path d="M67.6901 79.1113C67.6901 69.5789 62.0063 61.8516 54.9949 61.8516C47.9836 61.8516 42.2998 69.5789 42.2998 79.1113C42.2998 86.7872 45.9879 93.2846 51.0842 95.5275L49.7988 140.421C49.7032 143.269 51.8318 145.802 54.6756 145.97C57.7626 146.152 60.2934 143.647 60.1912 140.603L58.8999 95.5305C63.9993 93.29 67.6901 86.7901 67.6901 79.1113V79.1113Z" fill="#344D5B"/>
<path d="M54.9961 91.4398C60.639 91.4398 65.2134 85.2209 65.2134 77.5495C65.2134 69.8781 60.639 63.6592 54.9961 63.6592C49.3533 63.6592 44.7788 69.8781 44.7788 77.5495C44.7788 85.2209 49.3533 91.4398 54.9961 91.4398Z" fill="#293B44"/>
<path d="M40.8665 19.4092H99.8507V43.432H40.8665V19.4092Z" fill="#EDEDED"/>
</svg>
