<svg width="154" height="160" viewBox="0 0 154 160" fill="none" xmlns="http://www.w3.org/2000/svg">
<rect y="6.15384" width="153.846" height="153.846" rx="15" fill="#D0D0D0"/>
<rect width="153.846" height="153.846" rx="15" fill="#E6E2E1"/>
<path d="M0 15C0 6.71572 6.71573 0 15 0H138.846C147.13 0 153.846 6.71573 153.846 15V49.8462H0V15Z" fill="#ED5E5E"/>
<path d="M13.0594 35.8462V15.8032H19.116L22.7527 29.4751L26.3484 15.8032H32.4187V35.8462H28.659V20.0688L24.6805 35.8462H20.784L16.8191 20.0688V35.8462H13.0594ZM54.5125 35.8462H50.1101L48.3601 31.2934H40.3484L38.6941 35.8462H34.4012L42.2078 15.8032H46.4871L54.5125 35.8462ZM47.0613 27.9165L44.2996 20.479L41.5926 27.9165H47.0613ZM56.6863 35.8462V15.8032H65.2039C67.3458 15.8032 68.8999 15.9855 69.866 16.3501C70.8413 16.7055 71.6206 17.3436 72.2039 18.2641C72.7872 19.1847 73.0789 20.2374 73.0789 21.4223C73.0789 22.9262 72.6368 24.1704 71.7527 25.1548C70.8686 26.13 69.547 26.7452 67.7879 27.0005C68.6629 27.5109 69.3829 28.0714 69.948 28.6821C70.5222 29.2928 71.2924 30.3774 72.2586 31.936L74.7058 35.8462H69.866L66.9402 31.4848C65.9012 29.9262 65.1902 28.9464 64.8074 28.5454C64.4246 28.1352 64.019 27.8572 63.5906 27.7114C63.1622 27.5564 62.4832 27.479 61.5535 27.479H60.7332V35.8462H56.6863ZM60.7332 24.2798H63.7273C65.6687 24.2798 66.881 24.1977 67.364 24.0337C67.8471 23.8696 68.2254 23.587 68.4988 23.186C68.7722 22.785 68.909 22.2837 68.909 21.6821C68.909 21.0076 68.7267 20.4653 68.3621 20.0551C68.0066 19.6359 67.5008 19.3716 66.8445 19.2622C66.5164 19.2166 65.532 19.1938 63.8914 19.1938H60.7332V24.2798ZM96.8269 32.2778V35.8462H83.3601C83.506 34.4972 83.9435 33.2212 84.6726 32.018C85.4018 30.8058 86.8419 29.2016 88.993 27.2055C90.7247 25.5923 91.7866 24.4985 92.1785 23.9243C92.7071 23.1313 92.9715 22.3475 92.9715 21.5727C92.9715 20.716 92.739 20.0597 92.2742 19.604C91.8185 19.1391 91.185 18.9067 90.3738 18.9067C89.5717 18.9067 88.9337 19.1482 88.4597 19.6313C87.9858 20.1144 87.7124 20.9165 87.6394 22.0376L83.8113 21.6548C84.0392 19.5402 84.7547 18.0226 85.9578 17.102C87.1609 16.1814 88.6648 15.7212 90.4695 15.7212C92.4474 15.7212 94.0014 16.2544 95.1316 17.3208C96.2618 18.3872 96.8269 19.7133 96.8269 21.2993C96.8269 22.2016 96.6629 23.063 96.3347 23.8833C96.0157 24.6945 95.5053 25.5467 94.8035 26.4399C94.3387 27.0324 93.5001 27.8846 92.2879 28.9966C91.0756 30.1085 90.3055 30.8468 89.9773 31.2114C89.6583 31.576 89.3985 31.9314 89.198 32.2778H96.8269ZM105.932 15.7212C107.874 15.7212 109.391 16.4139 110.485 17.7993C111.789 19.4399 112.44 22.1606 112.44 25.9614C112.44 29.7531 111.784 32.4783 110.471 34.1372C109.387 35.5044 107.874 36.188 105.932 36.188C103.982 36.188 102.41 35.4406 101.216 33.9458C100.022 32.4419 99.4246 29.7667 99.4246 25.9204C99.4246 22.1469 100.081 19.4308 101.393 17.7719C102.478 16.4048 103.991 15.7212 105.932 15.7212ZM105.932 18.9067C105.468 18.9067 105.053 19.0571 104.688 19.3579C104.324 19.6495 104.041 20.1782 103.841 20.9438C103.576 21.9373 103.444 23.6098 103.444 25.9614C103.444 28.313 103.563 29.9308 103.8 30.8149C104.037 31.6899 104.333 32.2732 104.688 32.5649C105.053 32.8566 105.468 33.0024 105.932 33.0024C106.397 33.0024 106.812 32.8566 107.177 32.5649C107.541 32.2641 107.824 31.7309 108.024 30.9653C108.289 29.9809 108.421 28.313 108.421 25.9614C108.421 23.6098 108.302 21.9966 108.065 21.1216C107.828 20.2374 107.527 19.6495 107.163 19.3579C106.807 19.0571 106.397 18.9067 105.932 18.9067ZM127.999 32.2778V35.8462H114.532C114.678 34.4972 115.115 33.2212 115.845 32.018C116.574 30.8058 118.014 29.2016 120.165 27.2055C121.897 25.5923 122.958 24.4985 123.35 23.9243C123.879 23.1313 124.143 22.3475 124.143 21.5727C124.143 20.716 123.911 20.0597 123.446 19.604C122.99 19.1391 122.357 18.9067 121.546 18.9067C120.744 18.9067 120.106 19.1482 119.632 19.6313C119.158 20.1144 118.884 20.9165 118.811 22.0376L114.983 21.6548C115.211 19.5402 115.927 18.0226 117.13 17.102C118.333 16.1814 119.837 15.7212 121.641 15.7212C123.619 15.7212 125.173 16.2544 126.303 17.3208C127.434 18.3872 127.999 19.7133 127.999 21.2993C127.999 22.2016 127.835 23.063 127.507 23.8833C127.188 24.6945 126.677 25.5467 125.975 26.4399C125.511 27.0324 124.672 27.8846 123.46 28.9966C122.248 30.1085 121.477 30.8468 121.149 31.2114C120.83 31.576 120.57 31.9314 120.37 32.2778H127.999ZM137.104 15.7212C139.046 15.7212 140.563 16.4139 141.657 17.7993C142.96 19.4399 143.612 22.1606 143.612 25.9614C143.612 29.7531 142.956 32.4783 141.643 34.1372C140.559 35.5044 139.046 36.188 137.104 36.188C135.154 36.188 133.581 35.4406 132.387 33.9458C131.193 32.4419 130.596 29.7667 130.596 25.9204C130.596 22.1469 131.253 19.4308 132.565 17.7719C133.65 16.4048 135.163 15.7212 137.104 15.7212ZM137.104 18.9067C136.639 18.9067 136.225 19.0571 135.86 19.3579C135.496 19.6495 135.213 20.1782 135.012 20.9438C134.748 21.9373 134.616 23.6098 134.616 25.9614C134.616 28.313 134.734 29.9308 134.971 30.8149C135.208 31.6899 135.505 32.2732 135.86 32.5649C136.225 32.8566 136.639 33.0024 137.104 33.0024C137.569 33.0024 137.984 32.8566 138.348 32.5649C138.713 32.2641 138.996 31.7309 139.196 30.9653C139.46 29.9809 139.593 28.313 139.593 25.9614C139.593 23.6098 139.474 21.9966 139.237 21.1216C139 20.2374 138.699 19.6495 138.335 19.3579C137.979 19.0571 137.569 18.9067 137.104 18.9067Z" fill="white"/>
<path d="M131.692 136.692C131.692 133.931 133.931 131.692 136.692 131.692H153.846L142.769 142.769L131.692 153.846V136.692Z" fill="#D0D0D0"/>
<path d="M114.163 103.029V100.779C114.163 98.9455 114.018 97.1955 113.726 95.5288C113.476 93.8205 113.08 92.2372 112.538 90.7788C111.872 88.8205 110.934 87.0497 109.726 85.4663C108.518 83.883 107.08 82.5705 105.413 81.5288C104.038 80.6955 102.476 80.0497 100.726 79.5913C99.0176 79.133 97.1426 78.9038 95.101 78.9038C93.8093 78.9038 92.5593 79.0497 91.351 79.3413C90.1426 79.633 89.0176 80.0288 87.976 80.5288C86.6426 81.1122 85.3926 81.8622 84.226 82.7788C83.0593 83.6955 82.0385 84.6747 81.1635 85.7163C80.4551 86.4663 79.7885 87.2788 79.1635 88.1538C78.5801 88.9872 78.0385 89.8413 77.5385 90.7163C76.5801 89.133 75.4968 87.633 74.2885 86.2163C73.1218 84.7997 71.8093 83.5497 70.351 82.4663C68.8926 81.383 67.2885 80.5288 65.5385 79.9038C63.8301 79.2372 61.9968 78.9038 60.0385 78.9038C58.0385 78.9038 56.1843 79.133 54.476 79.5913C52.8093 80.008 51.3093 80.6122 49.976 81.4038C48.351 82.3622 46.9343 83.5913 45.726 85.0913C44.5176 86.5497 43.5593 88.2163 42.851 90.0913C42.226 91.633 41.7676 93.2997 41.476 95.0913C41.1843 96.883 41.0385 98.7788 41.0385 100.779V103.029C41.0385 104.946 41.1635 106.779 41.4135 108.529C41.7051 110.237 42.1426 111.821 42.726 113.279C43.3926 115.154 44.3093 116.821 45.476 118.279C46.6426 119.737 48.0176 120.987 49.601 122.029C50.976 122.904 52.5385 123.591 54.2885 124.091C56.0385 124.55 57.976 124.779 60.101 124.779C62.0593 124.779 63.8926 124.446 65.601 123.779C67.3093 123.112 68.8926 122.216 70.351 121.091C71.8093 119.966 73.1218 118.654 74.2885 117.154C75.4968 115.654 76.5801 114.091 77.5385 112.466C78.4551 114.091 79.4968 115.654 80.6635 117.154C81.8718 118.654 83.226 119.966 84.726 121.091C86.1843 122.216 87.7676 123.112 89.476 123.779C91.1843 124.446 93.0385 124.779 95.0385 124.779C97.1635 124.779 99.101 124.55 100.851 124.091C102.643 123.591 104.247 122.883 105.663 121.966C107.33 120.966 108.747 119.654 109.913 118.029C111.08 116.404 112.018 114.571 112.726 112.529C113.184 111.154 113.538 109.675 113.788 108.091C114.038 106.466 114.163 104.779 114.163 103.029ZM101.413 100.779V103.029C101.413 103.987 101.372 104.862 101.288 105.654C101.205 106.446 101.059 107.196 100.851 107.904C100.559 108.737 100.184 109.487 99.726 110.154C99.3093 110.779 98.7676 111.321 98.101 111.779C97.601 112.029 97.0176 112.237 96.351 112.404C95.726 112.529 95.0176 112.591 94.226 112.591C93.476 112.591 92.7468 112.466 92.0385 112.216C91.3718 111.925 90.726 111.55 90.101 111.091C89.0176 110.341 88.0593 109.383 87.226 108.216C86.4343 107.05 85.7676 105.966 85.226 104.966C84.8926 104.3 84.6218 103.696 84.4135 103.154C84.2051 102.612 84.0801 102.216 84.0385 101.966V100.966C84.0801 100.758 84.1843 100.446 84.351 100.029C84.5176 99.5705 84.7676 99.0497 85.101 98.4663C85.5593 97.5913 86.1635 96.6538 86.9135 95.6538C87.6635 94.6122 88.5593 93.6955 89.601 92.9038C90.2676 92.4038 90.9968 91.9872 91.7885 91.6538C92.5801 91.3205 93.4135 91.1538 94.2885 91.1538C95.6635 91.1538 96.8093 91.383 97.726 91.8413C98.6426 92.2997 99.3718 92.9455 99.9135 93.7788C100.205 94.2788 100.455 94.8205 100.663 95.4038C100.872 95.9455 101.038 96.5497 101.163 97.2163C101.247 97.758 101.309 98.3413 101.351 98.9663C101.393 99.5497 101.413 100.154 101.413 100.779ZM53.6635 103.029V100.779C53.6635 99.9455 53.7051 99.1747 53.7885 98.4663C53.8718 97.7163 53.976 97.008 54.101 96.3413C54.351 95.4663 54.6843 94.6538 55.101 93.9038C55.5593 93.1538 56.1426 92.5497 56.851 92.0913C57.3926 91.7997 57.976 91.5705 58.601 91.4038C59.2676 91.2372 60.0176 91.1538 60.851 91.1538C61.9343 91.1538 62.9343 91.4038 63.851 91.9038C64.8093 92.3622 65.6843 92.9663 66.476 93.7163C67.1843 94.4247 67.8093 95.1538 68.351 95.9038C68.8926 96.6538 69.351 97.383 69.726 98.0913C70.1426 98.758 70.4551 99.3622 70.6635 99.9038C70.8718 100.404 70.9968 100.758 71.0385 100.966V101.966C70.9968 102.175 70.8926 102.508 70.726 102.966C70.5593 103.425 70.3301 103.966 70.0385 104.591C69.5385 105.466 68.9135 106.466 68.1635 107.591C67.4551 108.675 66.5593 109.716 65.476 110.716C64.8093 111.3 64.0801 111.758 63.2885 112.091C62.5385 112.425 61.7468 112.591 60.9135 112.591C60.2468 112.591 59.6218 112.55 59.0385 112.466C58.4968 112.341 57.9968 112.196 57.5385 112.029C56.7468 111.696 56.101 111.216 55.601 110.591C55.101 109.966 54.6843 109.237 54.351 108.404C54.101 107.696 53.9135 106.883 53.7885 105.966C53.7051 105.05 53.6635 104.071 53.6635 103.029Z" fill="#303048"/>
</svg>
