<svg width="150" height="150" viewBox="0 0 150 150" fill="none" xmlns="http://www.w3.org/2000/svg">
<rect width="150" height="150" fill="#13335A"/>
<path d="M74.863 25C47.324 25 25 47.324 25 74.863C25 102.402 47.324 124.726 74.863 124.726C102.402 124.726 124.726 102.402 124.726 74.863C124.726 47.324 102.401 25 74.863 25ZM74.107 34.903C77.679 34.903 80.571 37.794 80.571 41.343C80.571 44.915 77.679 47.806 74.107 47.806C70.56 47.806 67.669 44.914 67.667 41.343C67.667 37.794 70.558 34.903 74.107 34.903ZM102.05 55.728L82.866 58.152L82.874 77.356L92.168 108.381C92.659 110.34 91.481 112.3 89.543 112.784C87.606 113.268 85.625 112.201 85.137 110.242L75.616 82H72.684L63.925 110.828C63.192 112.709 61.097 113.574 59.218 112.841C57.357 112.115 56.221 109.997 56.955 108.116L65 77.67V58.152L47.326 55.747C45.512 55.601 44.28 54.004 44.428 52.19C44.561 50.362 46.211 49.005 48.024 49.151L69.497 51H78.914L101.78 49.115C103.597 49.042 105.137 50.455 105.198 52.286C105.271 54.104 103.868 55.653 102.05 55.728Z" fill="white"/>
</svg>
