<svg width="160" height="160" fill="none" xmlns="http://www.w3.org/2000/svg"><path fill="#310D0D" d="M0 0h160v160H0z"/><path d="M58.334 130.262c-.101.775-.68.991-1.298 1.092-2.722.483-4.94 2.032-7.258 3.404-1.474.863-3.074 1.498-4.636 2.222-.202.089-.593.153-.668.051-.807-1.029-1.689-.19-2.331.064-1.349.533-2.546 1.409-3.83 2.121-.681.381-1.374.787-2.092 1.092-.781.317-1.638.432-2.256 1.143-.189.228-.668.279-1.008.279-.24 0-.479-.241-.718-.368.126-.191.227-.445.403-.546.68-.419 1.399-.775 2.092-1.169a395.22 395.22 0 003.175-1.816c.164-.089.315-.216.479-.254 2.545-.609 4.687-2.095 6.943-3.327.831-.457 1.587-1.105 2.406-1.689-.668-.902-1.36-.61-1.903-.343-2.079 1.054-4.12 2.184-6.16 3.289-.316.178-.58.483-.92.584-.29.089-.82.077-.933-.101-.151-.242-.151-.775.025-.991.996-1.295 1.903-2.718 3.755-2.934.554-.063 1.197-.215.756-1.041-.19-.356-.34-.686.05-.965.441-.305.882-.749 1.487-.343.592.406 1.235.584 1.903.267.617-.28 1.272-.559.806-1.499-.29-.584.088-.902.592-1.143.996-.47 1.966-.991 2.961-1.448.315-.139.895-.305 1.034-.165 1.008 1.092 1.6.114 2.318-.368.277-.191.617-.292.932-.432.643 1.067-.68 1.041-.768 1.816.24.051.542.229.73.153a87.429 87.429 0 004.146-1.918c.126-.064.126-.394.189-.597-.164-.038-.353-.14-.479-.089-.479.216-.945.483-1.6.533.39-.406.718-.914 1.184-1.193a119.202 119.202 0 014.965-2.807c.327-.178.894-.318 1.159-.165.693.432 1.298.267 1.928 0a134.96 134.96 0 003.679-1.613c.189-.089.277-.356.491-.648-1.134-.774-2.016.102-3.188.394.19-.483.227-.889.441-1.016.77-.483 1.563-.94 2.395-1.295.655-.293 1.436-.318 1.915-1.232-.403-.102-.718-.242-1.02-.229-2.294.14-4.486.495-6.074 2.489-.82 1.016-2.155 1.067-3.364 1.143-.655.038-.882-.432-.718-.99.15-.521.34-1.181.73-1.435 1.197-.762 2.319-1.88 3.995-1.41.327.089.73.038 1.058-.076a118.469 118.469 0 004.99-1.88c.566-.229 1.436-.47.529-1.384-.05-.051.264-.623.516-.788 1.978-1.359 3.97-2.679 5.96-4.013 3.78-2.54 7.862-4.508 11.92-6.553 2.495-1.257 4.586-3.073 6.753-4.775.48-.381.87-.876 1.235-1.36.907-1.218.743-2.17-.617-2.87-.857-.444-1.827-.736-2.772-.888-3.327-.534-6.678-.89-9.992-1.46-2.671-.458-4.864-1.944-6.048-4.357-.668-1.359-.945-3.188-.68-4.66.73-4.065 2.406-7.748 5.317-10.783 2.91-3.035 6.35-5.245 10.306-6.515 2.432-.775 4.952-.546 7.434.063 1.575.394 3.075.394 4.637-.317 1.512-.686 3.037-1.296 4.335-2.362.088-.077.201-.166.315-.19.504-.153.945.888 1.512.024.289-.444.743-.8 1.121-1.18.025-.026.113.012.315.025.025.38.076.774.076 1.168 0 .775-.366 1.55.277 2.286.201.242 0 .826 0 1.245.012 1.65.113 3.315.038 4.965-.089 1.791-.391 3.57-1.399 5.106a17.083 17.083 0 01-4.624 4.712c-.517.343-.933.38-1.525.216-1.386-.394-2.57-1.042-3.566-2.147-1.537-1.702-3.351-3.06-5.367-4.153-1.5-.813-2.873-.71-4.284.318-1.751 1.27-3.465 2.54-4.561 4.47-1.122 1.981-1.361 4.09-.48 6.185.454 1.067 1.55 1.6 2.647 1.803 2.28.432 4.586.775 6.892 1.055 1.99.228 4.057.101 6.01.508 2.734.558 5.254 1.676 6.615 4.432.542 1.105 1.21 2.172 1.6 3.327.479 1.423.517 2.87-.264 4.28-1.197 2.134-2.709 3.912-4.662 5.41-3.138 2.413-6.615 4.229-9.98 6.236-1.234.737-2.255 1.638-3.099 2.819-.53.737-1.21 1.436-1.978 1.893-3.805 2.248-7.66 4.394-11.491 6.578-1.235.699-2.596.635-3.944.673-.19 0-.492-.215-.53-.381-.037-.165.164-.469.34-.558a69.735 69.735 0 013.126-1.524c.554-.254 1.134-.458 1.21-1.474-.681.166-1.26.242-1.79.458-2.218.876-4.41 1.854-6.653 2.679-1.486.546-3.049.851-4.397 1.778-.24.165-.718.127-1.046.038-.97-.254-1.79.026-2.633.483-1.512.813-3.05 1.588-4.6 2.324-2.431 1.156-4.9 2.223-7.156 3.734-.605.406-1.172.876-1.739 1.346-.1.076-.113.368-.05.495s.315.293.428.254c.82-.241 1.65-.457 2.42-.812 1.108-.521 2.141-1.194 3.25-1.715 1.071-.521 2.08-1.194 3.44-.813.53.14 1.222-.444 1.865-.597.277-.063.617.127.945.204-.114.317-.139.8-.353.914-.844.457-1.752.813-2.646 1.168-.454.178-.933.267-1.399.407-.012-.114 0-.254-.038-.356a1.073 1.073 0 00-.252-.368c-.012-.013-.176.114-.277.178.101.127.177.279.29.381.088.076.214.076.328.114z" fill="#CE1B1B"/><path d="M58.334 130.262c-.101.775-.68.991-1.298 1.092-2.722.483-4.94 2.032-7.258 3.404-1.474.863-3.074 1.498-4.636 2.222-.202.089-.593.153-.668.051-.807-1.029-1.689-.19-2.331.064-1.349.533-2.546 1.409-3.83 2.121-.681.381-1.374.787-2.092 1.092-.781.317-1.638.432-2.256 1.143-.189.228-.668.279-1.008.279-.24 0-.479-.241-.718-.368.126-.191.227-.445.403-.546.68-.419 1.399-.775 2.092-1.169a395.22 395.22 0 003.175-1.816c.164-.089.315-.216.479-.254 2.545-.609 4.687-2.095 6.943-3.327.831-.457 1.587-1.105 2.406-1.689-.668-.902-1.36-.61-1.903-.343-2.079 1.054-4.12 2.184-6.16 3.289-.316.178-.58.483-.92.584-.29.089-.82.077-.933-.101-.151-.242-.151-.775.025-.991.996-1.295 1.903-2.718 3.755-2.934.554-.063 1.197-.215.756-1.041-.19-.356-.34-.686.05-.965.441-.305.882-.749 1.487-.343.592.406 1.235.584 1.903.267.617-.28 1.272-.559.806-1.499-.29-.584.088-.902.592-1.143.996-.47 1.966-.991 2.961-1.448.315-.139.895-.305 1.034-.165 1.008 1.092 1.6.114 2.318-.368.277-.191.617-.292.932-.432.643 1.067-.68 1.041-.768 1.816.24.051.542.229.73.153a87.429 87.429 0 004.146-1.918c.126-.064.126-.394.189-.597-.164-.038-.353-.14-.479-.089-.479.216-.945.483-1.6.533.39-.406.718-.914 1.184-1.193a119.202 119.202 0 014.965-2.807c.327-.178.894-.318 1.159-.165.693.432 1.298.267 1.928 0a134.96 134.96 0 003.679-1.613c.189-.089.277-.356.491-.648-1.134-.774-2.016.102-3.188.394.19-.483.227-.889.441-1.016.77-.483 1.563-.94 2.395-1.295.655-.293 1.436-.318 1.915-1.232-.403-.102-.718-.242-1.02-.229-2.294.14-4.486.495-6.074 2.489-.82 1.016-2.155 1.067-3.364 1.143-.655.038-.882-.432-.718-.99.15-.521.34-1.181.73-1.435 1.197-.762 2.319-1.88 3.995-1.41.327.089.73.038 1.058-.076a118.469 118.469 0 004.99-1.88c.566-.229 1.436-.47.529-1.384-.05-.051.264-.623.516-.788 1.978-1.359 3.97-2.679 5.96-4.013 3.78-2.54 7.862-4.508 11.92-6.553 2.495-1.257 4.586-3.073 6.753-4.775.48-.381.87-.876 1.235-1.36.907-1.218.743-2.17-.617-2.87-.857-.444-1.827-.736-2.772-.888-3.327-.534-6.678-.89-9.992-1.46-2.671-.458-4.864-1.944-6.048-4.357-.668-1.359-.945-3.188-.68-4.66.73-4.065 2.406-7.748 5.317-10.783 2.91-3.035 6.35-5.245 10.306-6.515 2.432-.775 4.952-.546 7.434.063 1.575.394 3.075.394 4.637-.317 1.512-.686 3.037-1.296 4.335-2.362.088-.077.201-.166.315-.19.504-.153.945.888 1.512.024.289-.444.743-.8 1.121-1.18.025-.026.113.012.315.025.025.38.076.774.076 1.168 0 .775-.366 1.55.277 2.286.201.242 0 .826 0 1.245.012 1.65.113 3.315.038 4.965-.089 1.791-.391 3.57-1.399 5.106a17.083 17.083 0 01-4.624 4.712c-.517.343-.933.38-1.525.216-1.386-.394-2.57-1.042-3.566-2.147-1.537-1.702-3.351-3.06-5.367-4.153-1.5-.813-2.873-.71-4.284.318-1.751 1.27-3.465 2.54-4.561 4.47-1.122 1.981-1.361 4.09-.48 6.185.454 1.067 1.55 1.6 2.647 1.803 2.28.432 4.586.775 6.892 1.055 1.99.228 4.057.101 6.01.508 2.734.558 5.254 1.676 6.615 4.432.542 1.105 1.21 2.172 1.6 3.327.479 1.423.517 2.87-.264 4.28-1.197 2.134-2.709 3.912-4.662 5.41-3.138 2.413-6.615 4.229-9.98 6.236-1.234.737-2.255 1.638-3.099 2.819-.53.737-1.21 1.436-1.978 1.893-3.805 2.248-7.66 4.394-11.491 6.578-1.235.699-2.596.635-3.944.673-.19 0-.492-.215-.53-.381-.037-.165.164-.469.34-.558a69.735 69.735 0 013.126-1.524c.554-.254 1.134-.458 1.21-1.474-.681.166-1.26.242-1.79.458-2.218.876-4.41 1.854-6.653 2.679-1.486.546-3.049.851-4.397 1.778-.24.165-.718.127-1.046.038-.97-.254-1.79.026-2.633.483-1.512.813-3.05 1.588-4.6 2.324-2.431 1.156-4.9 2.223-7.156 3.734-.605.406-1.172.876-1.739 1.346-.1.076-.113.368-.05.495s.315.293.428.254c.82-.241 1.65-.457 2.42-.812 1.108-.521 2.141-1.194 3.25-1.715 1.071-.521 2.08-1.194 3.44-.813.53.14 1.222-.444 1.865-.597.277-.063.617.127.945.204-.114.317-.139.8-.353.914-.844.457-1.752.813-2.646 1.168-.454.178-.933.267-1.399.407-.012-.114 0-.254-.038-.356a1.073 1.073 0 00-.252-.368c-.012-.013-.176.114-.277.178.101.127.177.279.29.381.088.076.214.076.328.114z" fill="url(#paint0_linear)"/><path d="M85.5 43.394c2.494-3.442 4.397-7.074 7.106-10.084.138.089.29.19.428.28-.92 1.866-1.852 3.733-2.772 5.6.114.063.24.14.353.216.416-.597.882-1.181 1.235-1.816.819-1.435 1.524-2.947 2.394-4.37 2.343-3.822 4.573-7.72 7.849-10.87.227-.216.416-.458.668-.635.781-.597 1.424-.584 2.23.076.126.114.227.444.164.584-.227.495-.516.978-.819 1.435-.882 1.321-1.751 2.642-2.671 3.937-.97 1.36-1.436 2.845-1.424 4.509.013 1.016-.428 1.727-1.5 2.108-.037-.42-.075-.75-.125-1.245-1.373 2.007-2.646 3.874-3.931 5.728-.038.05-.215.013-.517.013 1.222-2.845 3.453-5.131 4.007-8.217-1.55.75-2.205 2.248-3.112 3.492-.895 1.22-1.512 2.655-2.205 4.026-.731 1.423-1.462 2.858-2.08 4.344-.579 1.371-1.675 2.603-1.373 4.42 1.6-.623 1.827-2.591 3.402-3.29 0 .33.05.52-.012.66-1.689 3.76-3.175 7.608-5.658 10.973-1.373 1.867-2.381 4.013-3.578 6.02-.542.889-1.172 1.715-1.751 2.578-.202.305-.416.597-.568.927-.529 1.245-.907 2.566-1.587 3.721-.693 1.181-.592 2.49-.945 3.709-.82 2.895-1.751 5.753-2.596 8.648-1.197 4.077-1.99 8.255-2.658 12.46-.328 2.082-.441 4.165-.441 6.26.012 2.172-2.306 3.734-4.26 2.921-.213-.089-.44-.267-.54-.457-1.009-1.867-2.508-3.366-4.008-4.763-1.323-1.231-1.461-2.552-1.058-4 .315-1.143.214-2.159-.063-3.239-.416-1.663-.882-3.34-1.071-5.041-.126-1.13-.832-1.867-1.222-2.807a117.89 117.89 0 01-1.878-4.966c-.995-2.781-1.94-5.575-2.923-8.356-.491-1.385-1.172-2.706-1.537-4.128-.441-1.727-1.45-2.997-2.76-4.038-1.133-.89-1.663-2.07-1.537-3.379.151-1.55-.05-3.175.907-4.61.605-.901.908-2.02 1.336-3.035.277-.66.68-1.118 1.386-.635.592.406 1.059.203 1.5-.127 1.21-.914 2.47-.241 3.717-.152 1.335 1.371 3.01 2.387 3.338 4.61.492 3.403 1.172 6.794 1.928 10.147.668 2.946 1.55 5.83 2.331 8.75.126.47.139.978.265 1.46.189.763.39 1.525.617 2.274.089.292.265.559.366.85.189.534-.038 1.436.768 1.423.29-.012.63-.927.82-1.473 1.297-3.848 2.532-7.721 3.842-11.57 1.097-3.213 2.306-6.375 3.352-9.588.605-1.867.768-3.874 1.7-5.639.845-1.562 1.69-3.137 2.61-4.66.276-.47.717-1.118 1.473-.445.076.063.542-.178.706-.381.39-.47.693-1.016 1.058-1.512.567-.813.668-.787 1.323.369zm16.896-18.86c-.63.152-1.033.114-1.172.305A84.51 84.51 0 0098.78 28c-.063.09.025.432.113.47.19.076.517.114.63 0 1.121-1.054 2.142-2.172 2.873-3.937z" fill="#CE1B1B"/><path d="M85.5 43.394c2.494-3.442 4.397-7.074 7.106-10.084.138.089.29.19.428.28-.92 1.866-1.852 3.733-2.772 5.6.114.063.24.14.353.216.416-.597.882-1.181 1.235-1.816.819-1.435 1.524-2.947 2.394-4.37 2.343-3.822 4.573-7.72 7.849-10.87.227-.216.416-.458.668-.635.781-.597 1.424-.584 2.23.076.126.114.227.444.164.584-.227.495-.516.978-.819 1.435-.882 1.321-1.751 2.642-2.671 3.937-.97 1.36-1.436 2.845-1.424 4.509.013 1.016-.428 1.727-1.5 2.108-.037-.42-.075-.75-.125-1.245-1.373 2.007-2.646 3.874-3.931 5.728-.038.05-.215.013-.517.013 1.222-2.845 3.453-5.131 4.007-8.217-1.55.75-2.205 2.248-3.112 3.492-.895 1.22-1.512 2.655-2.205 4.026-.731 1.423-1.462 2.858-2.08 4.344-.579 1.371-1.675 2.603-1.373 4.42 1.6-.623 1.827-2.591 3.402-3.29 0 .33.05.52-.012.66-1.689 3.76-3.175 7.608-5.658 10.973-1.373 1.867-2.381 4.013-3.578 6.02-.542.889-1.172 1.715-1.751 2.578-.202.305-.416.597-.568.927-.529 1.245-.907 2.566-1.587 3.721-.693 1.181-.592 2.49-.945 3.709-.82 2.895-1.751 5.753-2.596 8.648-1.197 4.077-1.99 8.255-2.658 12.46-.328 2.082-.441 4.165-.441 6.26.012 2.172-2.306 3.734-4.26 2.921-.213-.089-.44-.267-.54-.457-1.009-1.867-2.508-3.366-4.008-4.763-1.323-1.231-1.461-2.552-1.058-4 .315-1.143.214-2.159-.063-3.239-.416-1.663-.882-3.34-1.071-5.041-.126-1.13-.832-1.867-1.222-2.807a117.89 117.89 0 01-1.878-4.966c-.995-2.781-1.94-5.575-2.923-8.356-.491-1.385-1.172-2.706-1.537-4.128-.441-1.727-1.45-2.997-2.76-4.038-1.133-.89-1.663-2.07-1.537-3.379.151-1.55-.05-3.175.907-4.61.605-.901.908-2.02 1.336-3.035.277-.66.68-1.118 1.386-.635.592.406 1.059.203 1.5-.127 1.21-.914 2.47-.241 3.717-.152 1.335 1.371 3.01 2.387 3.338 4.61.492 3.403 1.172 6.794 1.928 10.147.668 2.946 1.55 5.83 2.331 8.75.126.47.139.978.265 1.46.189.763.39 1.525.617 2.274.089.292.265.559.366.85.189.534-.038 1.436.768 1.423.29-.012.63-.927.82-1.473 1.297-3.848 2.532-7.721 3.842-11.57 1.097-3.213 2.306-6.375 3.352-9.588.605-1.867.768-3.874 1.7-5.639.845-1.562 1.69-3.137 2.61-4.66.276-.47.717-1.118 1.473-.445.076.063.542-.178.706-.381.39-.47.693-1.016 1.058-1.512.567-.813.668-.787 1.323.369zm16.896-18.86c-.63.152-1.033.114-1.172.305A84.51 84.51 0 0098.78 28c-.063.09.025.432.113.47.19.076.517.114.63 0 1.121-1.054 2.142-2.172 2.873-3.937z" fill="url(#paint1_linear)"/><path d="M98.653 19.124c-.68.927-.73 2.578-2.242 3.276-.277.127-.718.076-1.008-.063-.139-.064-.164-.546-.101-.813.227-.953.517-1.892.781-2.832.05-.178.101-.369.177-.52.403-.776.957-1.055 1.612-.864.605.203.844.634.781 1.816z" fill="#CE1B1B"/><path d="M98.653 19.124c-.68.927-.73 2.578-2.242 3.276-.277.127-.718.076-1.008-.063-.139-.064-.164-.546-.101-.813.227-.953.517-1.892.781-2.832.05-.178.101-.369.177-.52.403-.776.957-1.055 1.612-.864.605.203.844.634.781 1.816z" fill="url(#paint2_linear)"/><defs><linearGradient id="paint0_linear" x1="73.001" y1="58.486" x2="73.001" y2="141.73" gradientUnits="userSpaceOnUse"><stop stop-color="#F2BF0D"/><stop offset=".661" stop-color="#fff" stop-opacity="0"/></linearGradient><linearGradient id="paint1_linear" x1="77.656" y1="21.281" x2="77.656" y2="102.731" gradientUnits="userSpaceOnUse"><stop stop-color="#F2BF0D"/><stop offset=".661" stop-color="#fff" stop-opacity="0"/></linearGradient><linearGradient id="paint2_linear" x1="96.966" y1="17.25" x2="96.966" y2="22.473" gradientUnits="userSpaceOnUse"><stop stop-color="#F2BF0D"/><stop offset=".661" stop-color="#fff" stop-opacity="0"/></linearGradient></defs></svg>