<svg width="512" height="512" viewBox="0 0 512 512" fill="none" xmlns="http://www.w3.org/2000/svg">
<g clip-path="url(#clip0)">
<circle cx="256" cy="256" r="256" fill="white"/>
<path d="M283.488 335H240.422V255.156C240.422 234.831 232.948 224.668 218 224.668C210.891 224.668 205.103 227.721 200.637 233.828C196.171 239.935 193.938 247.546 193.938 256.66V335H150.734V254.336C150.734 234.557 143.397 224.668 128.723 224.668C121.34 224.668 115.415 227.585 110.949 233.418C106.574 239.251 104.387 247.181 104.387 257.207V335H61.1836V195H104.387V216.875H104.934C109.4 209.401 115.643 203.34 123.664 198.691C131.776 193.952 140.617 191.582 150.188 191.582C169.966 191.582 183.501 200.286 190.793 217.695C201.457 200.286 217.134 191.582 237.824 191.582C268.267 191.582 283.488 210.358 283.488 247.91V335ZM361.418 318.73H360.871V335H317.668V127.734H360.871V216.055H361.418C372.082 199.74 387.258 191.582 406.945 191.582C424.992 191.582 438.892 197.78 448.645 210.176C458.397 222.572 463.273 239.525 463.273 261.035C463.273 284.368 457.577 303.099 446.184 317.227C434.79 331.354 419.569 338.418 400.52 338.418C383.293 338.418 370.259 331.855 361.418 318.73ZM360.188 259.668V274.023C360.188 283.047 362.785 290.521 367.98 296.445C373.176 302.37 379.829 305.332 387.941 305.332C397.785 305.332 405.396 301.549 410.773 293.984C416.242 286.328 418.977 275.527 418.977 261.582C418.977 250.007 416.47 240.983 411.457 234.512C406.535 227.949 399.471 224.668 390.266 224.668C381.607 224.668 374.406 227.904 368.664 234.375C363.013 240.846 360.188 249.277 360.188 259.668Z" fill="#3E6689"/>
</g>
<defs>
<clipPath id="clip0">
<rect width="512" height="512" fill="white"/>
</clipPath>
</defs>
</svg>
