<svg width="28" height="28" xmlns="http://www.w3.org/2000/svg"><g><path d="M14.283 1.242C6.903 1.242.926 7.119.926 14.367c0 5.8 3.827 10.72 9.133 12.453.667.124.912-.282.912-.63 0-.312-.01-1.138-.016-2.232-3.716.791-4.5-1.761-4.5-1.761-.607-1.515-1.485-1.92-1.485-1.92-1.21-.814.093-.797.093-.797 1.341.091 2.046 1.352 2.046 1.352 1.19 2.007 3.127 1.427 3.89 1.092.12-.85.464-1.427.846-1.755-2.966-.329-6.084-1.457-6.084-6.486 0-1.433.518-2.604 1.375-3.522-.15-.332-.601-1.666.117-3.474 0 0 1.118-.352 3.673 1.346a13.04 13.04 0 013.339-.443 13.04 13.04 0 013.34.443c2.537-1.698 3.656-1.346 3.656-1.346.718 1.808.267 3.142.133 3.474.852.918 1.37 2.09 1.37 3.522 0 5.042-3.123 6.152-6.095 6.475.468.394.902 1.198.902 2.428 0 1.757-.017 3.168-.017 3.594 0 .344.234.755.918.624 5.344-1.723 9.168-6.645 9.168-12.437 0-7.248-5.981-13.125-13.357-13.125z" /></g></svg>