<svg width="28" height="28" viewBox="0 0 28 28" fill="none" xmlns="http://www.w3.org/2000/svg">
<path fill-rule="evenodd" clip-rule="evenodd" d="M19.615 21.3414C23.1233 20.9225 26.178 18.7608 26.5619 16.7857C27.1669 13.6743 27.1168 9.19285 27.1168 9.19285C27.1168 3.11879 23.1373 1.33839 23.1373 1.33839C21.1307 0.416814 17.6852 0.029266 14.1055 0H14.0176C10.438 0.029266 6.99468 0.416814 4.988 1.33839C4.988 1.33839 1.00828 3.11879 1.00828 9.19285C1.00828 9.56108 1.00638 9.94838 1.00439 10.3516C0.998891 11.4713 0.992786 12.7137 1.02517 14.0105C1.16969 19.9505 2.1142 25.8048 7.60625 27.2584C10.1385 27.9287 12.3126 28.069 14.0637 27.9727C17.239 27.7967 19.0216 26.8395 19.0216 26.8395L18.9168 24.5356C18.9168 24.5356 16.6476 25.2511 14.0992 25.164C11.5744 25.0773 8.90889 24.8916 8.50053 21.7917C8.46281 21.5194 8.44396 21.2282 8.44396 20.9225C8.44396 20.9225 10.9225 21.5283 14.0637 21.6722C15.9844 21.7603 17.7856 21.5597 19.615 21.3414ZM22.4227 17.0187V9.66403C22.4227 8.1609 22.0399 6.96643 21.2714 6.08271C20.4785 5.19901 19.4403 4.74599 18.1516 4.74599C16.6604 4.74599 15.5312 5.31909 14.7848 6.46544L14.0589 7.68209L13.3331 6.46544C12.5866 5.31909 11.4574 4.74599 9.96639 4.74599C8.67763 4.74599 7.63944 5.19901 6.84669 6.08271C6.07794 6.96643 5.69521 8.1609 5.69521 9.66403V17.0187H8.60898V9.8802C8.60898 8.37542 9.24213 7.61164 10.5086 7.61164C11.9088 7.61164 12.6107 8.51768 12.6107 10.3092V14.2166H15.5074V10.3092C15.5074 8.51768 16.2091 7.61164 17.6093 7.61164C18.8757 7.61164 19.5089 8.37542 19.5089 9.8802V17.0187H22.4227Z"/>
</svg>
