<svg width="28" height="28" xmlns="http://www.w3.org/2000/svg"><g><path d="M27.29 5.76c-.994.435-2.052.724-3.156.864a5.446 5.446 0 002.41-3.027 10.944 10.944 0 01-3.473 1.326 5.475 5.475 0 00-9.473 3.745c0 .434.036.851.126 1.249-4.553-.222-8.582-2.404-11.288-5.729a5.514 5.514 0 00-.75 2.769c0 1.896.977 3.577 2.433 4.55a5.41 5.41 0 01-2.474-.674v.06a5.502 5.502 0 004.387 5.382c-.446.122-.931.18-1.436.18-.35 0-.704-.02-1.036-.094.71 2.17 2.723 3.764 5.117 3.816a11.004 11.004 0 01-6.79 2.335c-.45 0-.88-.02-1.311-.075a15.418 15.418 0 008.401 2.458c10.078 0 15.588-8.348 15.588-15.584 0-.242-.008-.476-.02-.708 1.087-.772 2-1.735 2.745-2.844z" /></g></svg>